<?xml version="1.0" encoding="UTF-8"?>
<svg version="1.1" viewBox="0 0 2048 2048" width="4096" height="4096" xmlns="http://www.w3.org/2000/svg">
<path transform="translate(0)" d="m0 0h2048v2048h-2048z" fill="#FDFDFD"/>
<path transform="translate(666,343)" d="m0 0h718l38 3 32 5 25 6 30 10 25 11 25 14 17 12 14 11 20 18 8 8 9 11 13 16 11 17 10 18 11 22 10 27 7 26 5 25 3 22 2 34v692l-2 33-4 30-5 26-7 24-7 19-8 18-8 16-8 14-13 19-10 13-10 11-7 8-11 11-11 9-15 12-20 13-18 10-25 11-30 10-24 6-36 6-31 3-22 1h-680l-38-2-27-3-29-5-28-7-26-9-29-13-18-10-19-13-13-10-14-12-19-19-9-11-13-17-12-19-12-22-11-26-7-21-6-24-4-22-3-26-1-13-1-26v-670l1-33 3-32 4-24 8-32 8-23 11-24 10-18 14-21 10-13 12-14 20-20 14-11 13-10 21-13 27-14 24-9 26-8 28-6 30-4z" fill="#9119F5"/>
<path transform="translate(1015,593)" d="m0 0h14l14 2 13 5 13 9 9 9 9 14 5 14 1 11v259l2 8 5 6 7 3 269 1 13 4 11 6 10 8 7 7 9 14 5 12 2 9v24l-5 16-9 14-7 8-12 9-15 7-16 3h-260l-9 3-5 6-1 3-1 55v224l-2 10-6 14-8 10-9 9-11 7-13 5-9 2h-25l-16-5-12-7-12-11-9-12-5-12-2-10-1-277-4-8-6-5-216-1h-51l-16-4-15-8-10-9-9-10-8-16-3-12-1-15 3-17 5-12 7-11 9-10 12-9 13-6 7-2 270-1 6-3 5-6 2-5 1-266 4-16 7-14 11-12 7-6 12-7 12-4z" fill="#FDFDFD"/>
<path transform="translate(1697,1028)" d="m0 0 2 3v320l-2 33-4 30-5 26-7 24-7 19-8 18-8 16-8 14-13 19-10 13-10 11-7 8-11 11-11 9-15 12-20 13-18 10-25 11-30 10-24 6-36 6-31 3-22 1h-680l-38-2-27-3-29-5-28-7-26-9-29-13-11-6-1-3 9 3 9 5 10 4 21 9 24 8 34 8 12 2 13 1 3 1h8l14 1 24 1h706l28-3 7-1h12l13-2 10-2 24-6 20-7 19-9h2v-2l11-5 16-8 9-6 11-7 14-12 6-4 15-14 14-14 1-2h2l2-4 9-11 7-10 8-11 5-8 5-10 4-5 5-13 3-8 3-6 9-24 8-32 4-29 3-21 1-43-1-69 1-129 1-6z" fill="#7E0EED"/>
<path transform="translate(1697,1028)" d="m0 0 2 3v320l-2 33-4 30-5 26-7 24-7 19-8 18-8 16-8 14-13 19-10 13-10 11-7 8-11 11-11 9-15 12-20 13-18 10-25 11-30 10-24 6-22 4h-4v-2l9-2 29-6 20-6 16-6 14-7h2v-2l11-5 16-8 9-6 11-7 14-12 6-4 15-14 14-14 1-2h2l2-4 9-11 7-10 8-11 5-8 5-10 4-5 5-13 3-8 3-6 9-24 8-32 4-29 3-21 1-43-1-69 1-129 1-6z" fill="#7C0EEC"/>
<path transform="translate(1104,1075)" d="m0 0h17v1l-14 1-8 4-2 4-1 13v270l-1 3-1 6-4 10-6 9-9 10-13 10-12 6-16 4h-27v-2l-7-1-13-5-4-2v-2l-4-2-3-2v-2h-2v-2l-4-2-9-10-8-16-2-7v-18l1-37h1l1 48 4 15 6 12 8 10 10 9 12 7 16 5h25l15-4 12-6 9-7 8-8 7-11 5-13 1-7v-238l1-41 3-6 6-5z" fill="#7E0EED"/>
<path transform="translate(952,1316)" d="m0 0h1l1 48 4 15 6 12 8 10 10 9 12 7 16 5h25l9-1-1 3-9 2h-27v-2l-7-1-13-5-4-2v-2l-4-2-3-2v-2h-2v-2l-4-2-9-10-8-16-2-7v-18z" fill="#7C0EEC"/>
<path transform="translate(376,1487)" d="m0 0 2 1 7 16 9 17 16 24 8 10 11 13 27 27 8 7 8 5v2l6 2 9 7 10 7-3 1-21-14-13-10-14-12-19-19-9-11-13-17-12-19-12-22-5-11z" fill="#7F0FED"/>
<path transform="translate(498,1626)" d="m0 0 9 3 9 5 10 4 21 9 24 8 34 8 12 2 13 1 5 2v2l-13-1-29-5-28-7-26-9-29-13-11-6z" fill="#7F0FED"/>
<path transform="translate(1434,997)" d="m0 0h1v20l-4 15-5 11-3 3-7 8-11 10-13 8-11 4-15 2-20-1v-1l31-3 13-4 13-7 12-10 10-14 5-12 3-10z" fill="#8110EE"/>
<path transform="translate(349,1338)" d="m0 0 2 1 1 30 3 31 6 36 3 11v5l-2-1-6-25-4-24-3-32z" fill="#8110EE"/>
<path transform="translate(613,996)" d="m0 0h1l2 20 3 12 8 16 11 12 7 6 15 8 16 4 1 2h-9l-8-3-15-8-3-1-7-8-7-7-7-9-4-8-4-17-1-7v-7z" fill="#8110EE"/>
<path transform="translate(1486,1653)" d="m0 0 4 2-25 7-31 6h-4v-2l9-2 29-6z" fill="#8010EE"/>
<path transform="translate(1398,1065)" d="m0 0h2l-1 3-12 6-6 2-15 2-20-1v-1l31-3 13-4z" fill="#7D0EED"/>
<path transform="translate(354,1405)" d="m0 0h2l4 26 4 16v5l-2-1-6-25-2-10z" fill="#8211EF"/>
<path transform="translate(948,926)" d="m0 0v3l-5 4h-65v-1l60-1z" fill="#7A0CEB"/>
<path transform="translate(376,1487)" d="m0 0 2 1 7 16 9 17 4 6-1 4-15-27-6-13z" fill="#8311EF"/>
<path transform="translate(925,1075)" d="m0 0h18l8 7 2 4v8l-2-4-5-8-5-4-16-2z" fill="#7C0DEC"/>
<path transform="translate(350,1373)" d="m0 0h1v7h2l2 25-2 4-3-26z" fill="#8312EF"/>
<path transform="translate(1434,997)" d="m0 0h1v20l-4 15-4 8h-2l8-24z" fill="#7E0EED"/>
<path transform="translate(473,1609)" d="m0 0 6 3 8 6 10 7-3 1-21-14z" fill="#8110EE"/>
<path transform="translate(1369,1074)" d="m0 0h7l-2 3-11 1-17-1v-1z" fill="#7B0DEC"/>
<path transform="translate(354,1405)" d="m0 0h2l2 14v7h-2l-2-10z" fill="#8010EE"/>
<path transform="translate(1104,1075)" d="m0 0h17v1l-14 1-8 4-2 4-3 1 2-5 6-5z" fill="#7F0FED"/>
<path transform="translate(1058,1414)" d="m0 0 2 1-5 5-9 3-3-1 1-2 13-5z" fill="#8010EE"/>
<path transform="translate(613,996)" d="m0 0h1l1 12v12h-1l-2-12v-7z" fill="#7C0EEC"/>
</svg>
